<svg width="792" height="792" viewBox="0 0 792 792" fill="none" xmlns="http://www.w3.org/2000/svg">
<circle cx="396" cy="396" r="396" fill="#222222"/>
<path d="M238.8 274.4V530.6C238.8 537.4 240 542 242.4 544.4C244.8 546.8 249.6 548 256.8 548H273.6V590.6H240C220.8 590.6 206.6 586.2 197.4 577.4C188.6 568.2 184.2 554.8 184.2 537.2V267.2C184.2 250 188.6 237 197.4 228.2C206.6 219 220.8 214.4 240 214.4H277.2V257H256.8C249.6 257 244.8 258.2 242.4 260.6C240 262.6 238.8 267.2 238.8 274.4ZM304.8 332V274.4C304.8 267.2 303.6 262.6 301.2 260.6C299.2 258.2 294.6 257 287.4 257H267.6V214.4H303.6C323.2 214.4 337.4 219 346.2 228.2C355.4 237 360 250 360 267.2V332H304.8ZM304.8 530.6V473.6H360V537.2C360 554.8 355.4 568.2 346.2 577.4C337.4 586.2 323.2 590.6 303.6 590.6H267.6V548H287.4C294.6 548 299.2 546.8 301.2 544.4C303.6 542 304.8 537.4 304.8 530.6ZM413.372 214.4H543.572C563.172 214.4 577.372 219 586.172 228.2C595.372 237 599.972 250 599.972 267.2V362.6C599.972 372.6 597.972 380.8 593.972 387.2C589.972 393.6 583.972 397.8 575.972 399.8C583.972 401.8 589.972 405.6 593.972 411.2C597.972 416.8 599.972 424.6 599.972 434.6V537.2C599.972 554.4 595.372 567.6 586.172 576.8C577.372 585.6 563.172 590 543.572 590H413.372V214.4ZM545.372 530V437.6C545.372 430.4 544.172 425.8 541.772 423.8C539.772 421.4 534.972 420.2 527.372 420.2H467.972V547.4H527.372C534.972 547.4 539.772 546.2 541.772 543.8C544.172 541.4 545.372 536.8 545.372 530ZM545.372 360.2V274.4C545.372 267.2 544.172 262.6 541.772 260.6C539.772 258.2 534.972 257 527.372 257H467.972V377.6H527.372C534.972 377.6 539.772 376.4 541.772 374C544.172 371.6 545.372 367 545.372 360.2Z" fill="white"/>
</svg>
